<?xml version="1.0" standalone="no"?>
<!DOCTYPE svg PUBLIC "-//W3C//DTD SVG 20010904//EN"
 "http://www.w3.org/TR/2001/REC-SVG-20010904/DTD/svg10.dtd">
<svg version="1.0" xmlns="http://www.w3.org/2000/svg"
 width="196.000000pt" height="196.000000pt" viewBox="0 0 196.000000 196.000000"
 preserveAspectRatio="xMidYMid meet">
<metadata>
Created by potrace 1.11, written by Peter Selinger 2001-2013
</metadata>
<g transform="translate(0.000000,196.000000) scale(0.100000,-0.100000)"
fill="#000000" stroke="none">
<path d="M0 980 l0 -980 980 0 980 0 0 980 0 980 -980 0 -980 0 0 -980z m1835
0 l0 -855 -855 0 -855 0 -3 845 c-1 465 0 851 3 858 3 10 180 12 857 10 l853
-3 0 -855z"/>
<path d="M245 1708 c-3 -7 -4 -339 -3 -738 l3 -725 735 0 735 0 0 735 0 735
-733 3 c-581 2 -734 0 -737 -10z m1225 -358 l0 -120 -182 -2 -183 -3 -3 -367
-2 -368 -120 0 -120 0 -2 368 -3 367 -182 3 -183 2 0 120 0 120 490 0 490 0 0
-120z"/>
</g>
</svg>
